#!OML:ASF X:\für Bonn\!DataBase\2005_08_11_Bastian_Final\c3d\Bastian.ASF
:FULLY-SPECIFIED
:DEGREES
1
root 0.536436 17.3237 -0.350189 169.939 -5.37656 -176.461
lowerback 5.49811 -1.81966 0.798828
upperback 7.88005 -3.2869 1.23977
thorax 5.13248 -1.98495 0.838244
lowerneck -6.55008 -3.75595 -2.00603
upperneck -5.24029 -4.2627 7.71646
head -0.299524 -1.89379 2.71213
rclavicle -9.92681e-015 1.24737e-014
rhumerus -19.497 -41.4422 1.07659
rradius 33.0183
rwrist -170.055
rhand -12.9818 7.82848
rfingers 7.12502
rthumb 13.1108 -21.7394
lclavicle -9.92681e-015 1.24737e-014
lhumerus -44.9483 60.3615 -23.8126
lradius 24.5418
lwrist 175.861
lhand -12.0474 6.35618
lfingers 7.12502
lthumb 14.0113 35.864
rfemur 1.14576 6.87356 28.4228
rtibia 35.5294
rfoot -20.9813 -21.2825
rtoes 1.61094
lfemur 5.90795 1.36428 -13.8125
ltibia 27.5768
lfoot -17.2613 1.56136
ltoes -18.557
2
root 0.536419 17.324 -0.350267 169.939 -5.37656 -176.461
lowerback 5.49811 -1.81966 0.798828
upperback 7.88005 -3.2869 1.23977
thorax 5.13248 -1.98495 0.838244
lowerneck -6.55522 -3.75894 -2.02707
upperneck -5.23047 -4.26528 7.74493
head -0.294144 -1.89429 2.72525
rclavicle -9.92681e-015 1.24737e-014
rhumerus -19.4753 -41.3856 1.02181
rradius 33.0302
rwrist -170.087
rhand -12.8957 7.85481
rfingers 7.12502
rthumb 13.1937 -21.7077
lclavicle -9.92681e-015 1.24737e-014
lhumerus -45.0524 60.5214 -23.9012
lradius 24.5636
lwrist 175.745
lhand -12.0908 6.44115
lfingers 7.12502
lthumb 13.9695 35.9518
rfemur 1.14528 6.87358 28.4228
rtibia 35.5316
rfoot -20.9616 -21.2874
rtoes 1.52561
lfemur 5.90255 1.33827 -13.8177
ltibia 27.5664
lfoot -17.2509 1.5735
ltoes -18.4607
3
root 0.535541 17.324 -0.349891 169.952 -5.39064 -176.481
lowerback 5.50487 -1.81652 0.800639
upperback 7.87366 -3.2797 1.2187
thorax 5.12029 -1.97981 0.815977
lowerneck -6.59322 -3.77506 -2.01307
upperneck -5.18518 -4.29064 7.75924
head -0.27201 -1.90572 2.72565
rclavicle -2.13569e-014 5.71506e-015
rhumerus -19.4742 -41.389 0.969932
rradius 33.0251
rwrist -170.056
rhand -12.8121 7.87801
rfingers 7.12502
rthumb 13.2743 -21.6793
lclavicle -2.13569e-014 5.71506e-015
lhumerus -44.9685 60.614 -23.8085
lradius 24.5781
lwrist 175.707
lhand -12.0876 6.4767
lfingers 7.12502
lthumb 13.9726 35.9871
rfemur 1.12814 6.84088 28.3854
rtibia 35.5348
rfoot -20.9586 -21.2612
rtoes 1.51979
lfemur 5.88353 1.26615 -13.859
ltibia 27.5544
lfoot -17.2458 1.59538
ltoes -18.1725
4
root 0.535442 17.3246 -0.35049 169.964 -5.3977 -176.481
lowerback 5.48681 -1.8196 0.802759
upperback 7.87093 -3.28287 1.21801
thorax 5.12742 -1.9807 0.813346
lowerneck -6.61105 -3.77782 -2.01519
upperneck -5.14761 -4.29844 7.75735
head -0.256672 -1.90934 2.72445
rclavicle 5.86539e-014 -1.60519e-014
rhumerus -19.4333 -41.188 0.89423
rradius 33.0196
rwrist -170.214
rhand -12.6623 7.89888
rfingers 7.12502
rthumb 13.4187 -21.6489
lclavicle 5.86539e-014 -1.60519e-014
lhumerus -45.0546 60.766 -23.8777
lradius 24.5967
lwrist 175.621
lhand -12.1571 6.54486
lfingers 7.12502
lthumb 13.9056 36.0599
rfemur 1.11256 6.85246 28.3867
rtibia 35.534
rfoot -20.9539 -21.279
rtoes 1.51109
lfemur 5.86386 1.22882 -13.8679
ltibia 27.5465
lfoot -17.2379 1.61346
ltoes -18.0754
5
root 0.535404 17.3248 -0.35056 169.964 -5.3977 -176.481
lowerback 5.50708 -1.81951 0.811056
upperback 7.85312 -3.279 1.21285
thorax 5.09618 -1.97717 0.805006
lowerneck -6.5673 -3.77789 -2.01679
upperneck -5.1613 -4.29811 7.76617
head -0.268181 -1.91056 2.72863
rclavicle 5.27587e-014 -1.89839e-014
rhumerus -19.4036 -41.1493 0.830802
rradius 33.0173
rwrist -170.203
rhand -12.602 7.93716
rfingers 7.12502
rthumb 13.4769 -21.6068
lclavicle 5.27587e-014 -1.89839e-014
lhumerus -44.9131 60.7499 -23.7064
lradius 24.5929
lwrist 175.675
lhand -12.1345 6.58247
lfingers 7.12502
lthumb 13.9274 36.096
rfemur 1.11342 6.8525 28.3866
rtibia 35.5331
rfoot -20.9694 -21.2802
rtoes 1.4149
lfemur 5.8586 1.16912 -13.8794
ltibia 27.5382
lfoot -17.2374 1.63013
ltoes -17.8021
